<svg xmlns="http://www.w3.org/2000/svg" viewBox="0 0 1180 476" width="100%" role="img" aria-label="PC-BACL 연구 플랫폼 모식도: 제제기술과 약물전달시스템을 통한 생체이용률 조절"><defs><linearGradient id="gf" x1="0" y1="0" x2="0" y2="1"><stop offset="0" stop-color="#EEF4FB"/><stop offset="1" stop-color="#E3EDF9"/></linearGradient><linearGradient id="gd" x1="0" y1="0" x2="0" y2="1"><stop offset="0" stop-color="#E9F6F3"/><stop offset="1" stop-color="#DDF0EB"/></linearGradient><marker id="ar" viewBox="0 0 10 10" refX="9" refY="5" markerWidth="7" markerHeight="7" orient="auto"><path d="M0 0 L10 5 L0 10 z" fill="#6B7885"/></marker><marker id="arb" viewBox="0 0 10 10" refX="9" refY="5" markerWidth="7" markerHeight="7" orient="auto"><path d="M0 0 L10 5 L0 10 z" fill="#2F6FE0"/></marker></defs><rect x="18" y="118" width="176" height="196" rx="14" fill="#F2F7FC" stroke="#D9E2EC"/><text x="106" y="146" font-size="13" font-weight="700" fill="#0F3557" text-anchor="middle" letter-spacing="0" font-family="Inter,Pretendard,system-ui,sans-serif">난용성 약물</text><text x="106" y="163" font-size="10.5" font-weight="500" fill="#6B7885" text-anchor="middle" letter-spacing="0" font-family="Inter,Pretendard,system-ui,sans-serif">Poorly soluble drug</text><g transform="translate(84,215) rotate(12)"><rect x="-17" y="-10.5" width="34" height="21.1" rx="2" fill="#C8D6E5" stroke="#0F3557" stroke-width="1.2" opacity=".85"/></g><g transform="translate(116,206) rotate(-20)"><rect x="-13" y="-8.1" width="26" height="16.1" rx="2" fill="#C8D6E5" stroke="#0F3557" stroke-width="1.2" opacity=".85"/></g><g transform="translate(104,240) rotate(32)"><rect x="-12" y="-7.4" width="24" height="14.9" rx="2" fill="#C8D6E5" stroke="#0F3557" stroke-width="1.2" opacity=".85"/></g><g transform="translate(76,246) rotate(-8)"><rect x="-9" y="-5.6" width="18" height="11.2" rx="2" fill="#C8D6E5" stroke="#0F3557" stroke-width="1.2" opacity=".85"/></g><text x="106" y="285" font-size="9.8" font-weight="500" fill="#6B7885" text-anchor="middle" letter-spacing="0" font-family="Inter,Pretendard,system-ui,sans-serif">낮은 용해도 · 낮은 흡수</text><text x="106" y="299" font-size="9" font-weight="400" fill="#6B7885" text-anchor="middle" letter-spacing="0" font-family="Inter,Pretendard,system-ui,sans-serif">Low solubility · Low absorption</text><line x1="200" y1="216" x2="238" y2="216" stroke="#6B7885" stroke-width="1.6" marker-end="url(#ar)"/><rect x="246" y="42" width="330" height="176" rx="14" fill="url(#gf)" stroke="#C9DBF0"/><rect x="246" y="42" width="330" height="4" rx="2" fill="#2F6FE0"/><text x="264" y="72" font-size="13.5" font-weight="800" fill="#0F3557" text-anchor="start" letter-spacing="0" font-family="Inter,Pretendard,system-ui,sans-serif">① 제제기술</text><text x="264" y="88" font-size="10" font-weight="600" fill="#6B7885" text-anchor="start" letter-spacing=".4" font-family="Inter,Pretendard,system-ui,sans-serif">Formulation Technology</text><rect x="268" y="110" width="146" height="38" rx="8" fill="#fff" stroke="#CBDCEF"/><circle cx="284" cy="129" r="5" fill="#2F6FE0" opacity=".85"/><text x="297" y="126" font-size="10.8" font-weight="700" fill="#16202E" text-anchor="start" letter-spacing="0" font-family="Inter,Pretendard,system-ui,sans-serif">고체분산체</text><text x="297" y="139" font-size="8.6" font-weight="500" fill="#6B7885" text-anchor="start" letter-spacing="0" font-family="Inter,Pretendard,system-ui,sans-serif">Solid dispersion</text><rect x="426" y="110" width="146" height="38" rx="8" fill="#fff" stroke="#CBDCEF"/><circle cx="442" cy="129" r="5" fill="#2F6FE0" opacity=".85"/><text x="455" y="126" font-size="10.8" font-weight="700" fill="#16202E" text-anchor="start" letter-spacing="0" font-family="Inter,Pretendard,system-ui,sans-serif">나노결정</text><text x="455" y="139" font-size="8.6" font-weight="500" fill="#6B7885" text-anchor="start" letter-spacing="0" font-family="Inter,Pretendard,system-ui,sans-serif">Nanocrystal</text><rect x="268" y="158" width="146" height="38" rx="8" fill="#fff" stroke="#CBDCEF"/><circle cx="284" cy="177" r="5" fill="#2F6FE0" opacity=".85"/><text x="297" y="174" font-size="10.8" font-weight="700" fill="#16202E" text-anchor="start" letter-spacing="0" font-family="Inter,Pretendard,system-ui,sans-serif">SMEDDS</text><text x="297" y="187" font-size="8.6" font-weight="500" fill="#6B7885" text-anchor="start" letter-spacing="0" font-family="Inter,Pretendard,system-ui,sans-serif">Self-microemulsifying</text><rect x="426" y="158" width="146" height="38" rx="8" fill="#fff" stroke="#CBDCEF"/><circle cx="442" cy="177" r="5" fill="#2F6FE0" opacity=".85"/><text x="455" y="174" font-size="10.8" font-weight="700" fill="#16202E" text-anchor="start" letter-spacing="0" font-family="Inter,Pretendard,system-ui,sans-serif">고온용융압출</text><text x="455" y="187" font-size="8.6" font-weight="500" fill="#6B7885" text-anchor="start" letter-spacing="0" font-family="Inter,Pretendard,system-ui,sans-serif">Hot-melt extrusion</text><rect x="246" y="248" width="330" height="176" rx="14" fill="url(#gd)" stroke="#BFE0D8"/><rect x="246" y="248" width="330" height="4" rx="2" fill="#0E8C7F"/><text x="264" y="278" font-size="13.5" font-weight="800" fill="#0F3557" text-anchor="start" letter-spacing="0" font-family="Inter,Pretendard,system-ui,sans-serif">② 약물전달시스템</text><text x="264" y="294" font-size="10" font-weight="600" fill="#6B7885" text-anchor="start" letter-spacing=".4" font-family="Inter,Pretendard,system-ui,sans-serif">Drug Delivery Systems</text><rect x="268" y="316" width="146" height="38" rx="8" fill="#fff" stroke="#C4E2DB"/><circle cx="284" cy="335" r="5" fill="#0E8C7F" opacity=".9"/><text x="297" y="332" font-size="10.8" font-weight="700" fill="#16202E" text-anchor="start" letter-spacing="0" font-family="Inter,Pretendard,system-ui,sans-serif">Fattigation 나노입자</text><text x="297" y="345" font-size="8.6" font-weight="500" fill="#6B7885" text-anchor="start" letter-spacing="0" font-family="Inter,Pretendard,system-ui,sans-serif">Fatty-acid conjugation</text><rect x="426" y="316" width="146" height="38" rx="8" fill="#fff" stroke="#C4E2DB"/><circle cx="442" cy="335" r="5" fill="#0E8C7F" opacity=".9"/><text x="455" y="332" font-size="10.8" font-weight="700" fill="#16202E" text-anchor="start" letter-spacing="0" font-family="Inter,Pretendard,system-ui,sans-serif">재조합 알부민</text><text x="455" y="345" font-size="8.6" font-weight="500" fill="#6B7885" text-anchor="start" letter-spacing="0" font-family="Inter,Pretendard,system-ui,sans-serif">Recombinant albumin</text><rect x="268" y="364" width="146" height="38" rx="8" fill="#fff" stroke="#C4E2DB"/><circle cx="284" cy="383" r="5" fill="#0E8C7F" opacity=".9"/><text x="297" y="380" font-size="10.8" font-weight="700" fill="#16202E" text-anchor="start" letter-spacing="0" font-family="Inter,Pretendard,system-ui,sans-serif">FFAR 종양 표적</text><text x="297" y="393" font-size="8.6" font-weight="500" fill="#6B7885" text-anchor="start" letter-spacing="0" font-family="Inter,Pretendard,system-ui,sans-serif">Receptor-mediated</text><rect x="426" y="364" width="146" height="38" rx="8" fill="#fff" stroke="#C4E2DB"/><circle cx="442" cy="383" r="5" fill="#0E8C7F" opacity=".9"/><text x="455" y="380" font-size="10.8" font-weight="700" fill="#16202E" text-anchor="start" letter-spacing="0" font-family="Inter,Pretendard,system-ui,sans-serif">경구 펩타이드 흡수</text><text x="455" y="393" font-size="8.6" font-weight="500" fill="#6B7885" text-anchor="start" letter-spacing="0" font-family="Inter,Pretendard,system-ui,sans-serif">Permeation enhancer</text><path d="M584 130 C606 130, 606 205, 624 216" fill="none" stroke="#6B7885" stroke-width="1.5"/><path d="M584 336 C606 336, 606 227, 624 216" fill="none" stroke="#6B7885" stroke-width="1.5"/><line x1="624" y1="216" x2="654" y2="216" stroke="#6B7885" stroke-width="1.6" marker-end="url(#ar)"/><rect x="666" y="86" width="310" height="272" rx="14" fill="#fff" stroke="#D9E2EC"/><text x="821.0" y="116" font-size="13.5" font-weight="800" fill="#0F3557" text-anchor="middle" letter-spacing="0" font-family="Inter,Pretendard,system-ui,sans-serif">생체이용률 조절</text><text x="821.0" y="132" font-size="9.8" font-weight="600" fill="#6B7885" text-anchor="middle" letter-spacing="0" font-family="Inter,Pretendard,system-ui,sans-serif">Bioavailability control by design</text><line x1="708" y1="160" x2="708" y2="296" stroke="#6B7885" stroke-width="1.3"/><line x1="708" y1="296" x2="952" y2="296" stroke="#6B7885" stroke-width="1.3"/><text x="700" y="154" font-size="10" font-weight="700" fill="#6B7885" text-anchor="end" letter-spacing="0" font-family="Inter,Pretendard,system-ui,sans-serif">C</text><text x="706" y="157" font-size="7.5" font-weight="600" fill="#6B7885" text-anchor="end" letter-spacing="0" font-family="Inter,Pretendard,system-ui,sans-serif">p</text><text x="952" y="312" font-size="9.5" font-weight="600" fill="#6B7885" text-anchor="end" letter-spacing="0" font-family="Inter,Pretendard,system-ui,sans-serif">Time</text><path d="M708 296 C723 296, 732 244, 771 181 C815 187, 845 248, 889 273 C918 286, 937 291, 952 293 L952 296 Z" fill="#2F6FE0" opacity=".07"/><path d="M708 296 C723 296, 732 275, 781 250 C815 252, 845 277, 889 287 C918 292, 937 294, 952 295" fill="none" stroke="#6B7885" stroke-width="2.0" stroke-linecap="round" stroke-dasharray="5 4"/><path d="M708 296 C723 296, 732 244, 771 181 C815 187, 845 248, 889 273 C918 286, 937 291, 952 293" fill="none" stroke="#2F6FE0" stroke-width="3.0" stroke-linecap="round" /><circle cx="771" cy="181" r="4" fill="#0F3557"/><line x1="771" y1="181" x2="771" y2="296" stroke="#0F3557" stroke-width="1" stroke-dasharray="3 3" opacity=".45"/><text x="780.44" y="174.8" font-size="9.5" font-weight="700" fill="#0F3557" text-anchor="start" letter-spacing="0" font-family="Inter,Pretendard,system-ui,sans-serif">C</text><text x="788.44" y="177.8" font-size="7" font-weight="600" fill="#0F3557" text-anchor="start" letter-spacing="0" font-family="Inter,Pretendard,system-ui,sans-serif">max</text><text x="773.44" y="310" font-size="9" font-weight="700" fill="#6B7885" text-anchor="middle" letter-spacing="0" font-family="Inter,Pretendard,system-ui,sans-serif">T</text><text x="780.44" y="312" font-size="6.5" font-weight="600" fill="#6B7885" text-anchor="middle" letter-spacing="0" font-family="Inter,Pretendard,system-ui,sans-serif">max</text><text x="946" y="274" font-size="9.5" font-weight="700" fill="#2F6FE0" text-anchor="end" letter-spacing="0" font-family="Inter,Pretendard,system-ui,sans-serif">AUC ↑</text><line x1="708" y1="326" x2="724" y2="326" stroke="#2F6FE0" stroke-width="2.6" stroke-linecap="round"/><text x="730" y="330" font-size="8.8" font-weight="700" fill="#2F6FE0" text-anchor="start" letter-spacing="0" font-family="Inter,Pretendard,system-ui,sans-serif">제제·전달 설계 적용 (designed)</text><line x1="708" y1="341" x2="724" y2="341" stroke="#6B7885" stroke-width="2.2" stroke-dasharray="4 3" stroke-linecap="round"/><text x="730" y="345" font-size="8.8" font-weight="600" fill="#6B7885" text-anchor="start" letter-spacing="0" font-family="Inter,Pretendard,system-ui,sans-serif">기존 제형 (as-is)</text><line x1="821.0" y1="366" x2="821.0" y2="388" stroke="#2F6FE0" stroke-width="1.8" marker-end="url(#arb)"/><rect x="660" y="396" width="322" height="58" rx="12" fill="#0F3557"/><text x="821.0" y="420" font-size="12.5" font-weight="800" fill="#FFFFFF" text-anchor="middle" letter-spacing="0" font-family="Inter,Pretendard,system-ui,sans-serif">환자 중심 제형 설계</text><text x="821.0" y="437" font-size="9.2" font-weight="600" fill="#A9C6E4" text-anchor="middle" letter-spacing="0" font-family="Inter,Pretendard,system-ui,sans-serif">Patient-centered dosage form design</text></svg>